<mxfile host="app.diagrams.net" modified="2023-05-29T09:50:11.618Z" agent="Mozilla/5.0 (Windows NT 10.0; Win64; x64) AppleWebKit/537.36 (KHTML, like Gecko) Chrome/113.0.0.0 Safari/537.36" etag="lqiKjPjAg6Jb7oox1c7R" version="21.2.3" type="github">
  <diagram name="第 1 页" id="z0oG-mKyvX9SuO6VliDq">
    <mxGraphModel dx="1434" dy="756" grid="1" gridSize="10" guides="1" tooltips="1" connect="1" arrows="1" fold="1" page="0" pageScale="1" pageWidth="827" pageHeight="1169" math="0" shadow="0">
      <root>
        <mxCell id="0" />
        <mxCell id="1" parent="0" />
        <mxCell id="Hmux4KGo7t67pJO13rqE-40" value="kubernetes" style="rounded=0;whiteSpace=wrap;html=1;" vertex="1" parent="1">
          <mxGeometry x="80" y="320" width="520" height="40" as="geometry" />
        </mxCell>
        <mxCell id="Hmux4KGo7t67pJO13rqE-43" value="" style="group" vertex="1" connectable="0" parent="1">
          <mxGeometry x="80" y="160" width="240" height="110" as="geometry" />
        </mxCell>
        <mxCell id="Hmux4KGo7t67pJO13rqE-6" value="" style="rounded=0;whiteSpace=wrap;html=1;" vertex="1" parent="Hmux4KGo7t67pJO13rqE-43">
          <mxGeometry width="240" height="110" as="geometry" />
        </mxCell>
        <mxCell id="Hmux4KGo7t67pJO13rqE-8" value="controller-manager" style="text;html=1;strokeColor=none;fillColor=none;align=center;verticalAlign=middle;whiteSpace=wrap;rounded=0;movable=1;resizable=1;rotatable=1;deletable=1;editable=1;locked=0;connectable=1;" vertex="1" parent="Hmux4KGo7t67pJO13rqE-43">
          <mxGeometry x="36" width="180" height="30" as="geometry" />
        </mxCell>
        <mxCell id="Hmux4KGo7t67pJO13rqE-11" value="Cache &lt;br&gt;Controlelr" style="rounded=0;whiteSpace=wrap;html=1;" vertex="1" parent="Hmux4KGo7t67pJO13rqE-43">
          <mxGeometry x="20" y="40" width="90" height="60" as="geometry" />
        </mxCell>
        <mxCell id="Hmux4KGo7t67pJO13rqE-116" value="NodeCache &lt;br&gt;Controlelr" style="rounded=0;whiteSpace=wrap;html=1;" vertex="1" parent="Hmux4KGo7t67pJO13rqE-43">
          <mxGeometry x="130" y="40" width="90" height="60" as="geometry" />
        </mxCell>
        <mxCell id="Hmux4KGo7t67pJO13rqE-36" value="" style="rounded=0;whiteSpace=wrap;html=1;" vertex="1" parent="1">
          <mxGeometry x="360" y="160" width="240" height="110" as="geometry" />
        </mxCell>
        <mxCell id="Hmux4KGo7t67pJO13rqE-37" value="scheduler" style="text;html=1;strokeColor=none;fillColor=none;align=center;verticalAlign=middle;whiteSpace=wrap;rounded=0;movable=1;resizable=1;rotatable=1;deletable=1;editable=1;locked=0;connectable=1;" vertex="1" parent="1">
          <mxGeometry x="412.14142857142855" y="160" width="142.85714285714286" height="30" as="geometry" />
        </mxCell>
        <mxCell id="Hmux4KGo7t67pJO13rqE-38" value="Co-cache&lt;br&gt;Plugin" style="rounded=0;whiteSpace=wrap;html=1;" vertex="1" parent="1">
          <mxGeometry x="410" y="200" width="147.14" height="60" as="geometry" />
        </mxCell>
        <mxCell id="Hmux4KGo7t67pJO13rqE-48" value="Cache/NodeCache&lt;br&gt;Controller" style="shape=umlLifeline;perimeter=lifelinePerimeter;whiteSpace=wrap;html=1;container=1;dropTarget=0;collapsible=0;recursiveResize=0;outlineConnect=0;portConstraint=eastwest;newEdgeStyle={&quot;edgeStyle&quot;:&quot;elbowEdgeStyle&quot;,&quot;elbow&quot;:&quot;vertical&quot;,&quot;curved&quot;:0,&quot;rounded&quot;:0};" vertex="1" parent="1">
          <mxGeometry x="280" y="1200" width="100" height="800" as="geometry" />
        </mxCell>
        <mxCell id="Hmux4KGo7t67pJO13rqE-81" value="" style="html=1;points=[];perimeter=orthogonalPerimeter;outlineConnect=0;targetShapes=umlLifeline;portConstraint=eastwest;newEdgeStyle={&quot;edgeStyle&quot;:&quot;elbowEdgeStyle&quot;,&quot;elbow&quot;:&quot;vertical&quot;,&quot;curved&quot;:0,&quot;rounded&quot;:0};" vertex="1" parent="Hmux4KGo7t67pJO13rqE-48">
          <mxGeometry x="45" y="90" width="10" height="80" as="geometry" />
        </mxCell>
        <mxCell id="Hmux4KGo7t67pJO13rqE-84" value="" style="html=1;points=[];perimeter=orthogonalPerimeter;outlineConnect=0;targetShapes=umlLifeline;portConstraint=eastwest;newEdgeStyle={&quot;edgeStyle&quot;:&quot;elbowEdgeStyle&quot;,&quot;elbow&quot;:&quot;vertical&quot;,&quot;curved&quot;:0,&quot;rounded&quot;:0};" vertex="1" parent="Hmux4KGo7t67pJO13rqE-48">
          <mxGeometry x="50" y="120" width="10" height="40" as="geometry" />
        </mxCell>
        <mxCell id="Hmux4KGo7t67pJO13rqE-85" value="Reconcile&lt;br&gt;为Cache 选择合适的节点，&lt;br&gt;并生成NodeCache CR" style="html=1;align=left;spacingLeft=2;endArrow=block;rounded=0;edgeStyle=orthogonalEdgeStyle;curved=0;rounded=0;" edge="1" target="Hmux4KGo7t67pJO13rqE-84" parent="Hmux4KGo7t67pJO13rqE-48">
          <mxGeometry relative="1" as="geometry">
            <mxPoint x="55" y="100" as="sourcePoint" />
            <Array as="points">
              <mxPoint x="85" y="130" />
            </Array>
          </mxGeometry>
        </mxCell>
        <mxCell id="Hmux4KGo7t67pJO13rqE-49" value="Cache&lt;br&gt;Agent" style="shape=umlLifeline;perimeter=lifelinePerimeter;whiteSpace=wrap;html=1;container=1;dropTarget=0;collapsible=0;recursiveResize=0;outlineConnect=0;portConstraint=eastwest;newEdgeStyle={&quot;edgeStyle&quot;:&quot;elbowEdgeStyle&quot;,&quot;elbow&quot;:&quot;vertical&quot;,&quot;curved&quot;:0,&quot;rounded&quot;:0};" vertex="1" parent="1">
          <mxGeometry x="440" y="1200" width="100" height="800" as="geometry" />
        </mxCell>
        <mxCell id="Hmux4KGo7t67pJO13rqE-86" value="" style="html=1;points=[];perimeter=orthogonalPerimeter;outlineConnect=0;targetShapes=umlLifeline;portConstraint=eastwest;newEdgeStyle={&quot;edgeStyle&quot;:&quot;elbowEdgeStyle&quot;,&quot;elbow&quot;:&quot;vertical&quot;,&quot;curved&quot;:0,&quot;rounded&quot;:0};" vertex="1" parent="Hmux4KGo7t67pJO13rqE-49">
          <mxGeometry x="45" y="200" width="10" height="80" as="geometry" />
        </mxCell>
        <mxCell id="Hmux4KGo7t67pJO13rqE-50" value="co-cache&lt;br&gt;Scheduler Plugin" style="shape=umlLifeline;perimeter=lifelinePerimeter;whiteSpace=wrap;html=1;container=1;dropTarget=0;collapsible=0;recursiveResize=0;outlineConnect=0;portConstraint=eastwest;newEdgeStyle={&quot;edgeStyle&quot;:&quot;elbowEdgeStyle&quot;,&quot;elbow&quot;:&quot;vertical&quot;,&quot;curved&quot;:0,&quot;rounded&quot;:0};" vertex="1" parent="1">
          <mxGeometry x="600" y="1200" width="100" height="800" as="geometry" />
        </mxCell>
        <mxCell id="Hmux4KGo7t67pJO13rqE-120" value="" style="html=1;points=[];perimeter=orthogonalPerimeter;outlineConnect=0;targetShapes=umlLifeline;portConstraint=eastwest;newEdgeStyle={&quot;edgeStyle&quot;:&quot;elbowEdgeStyle&quot;,&quot;elbow&quot;:&quot;vertical&quot;,&quot;curved&quot;:0,&quot;rounded&quot;:0};" vertex="1" parent="Hmux4KGo7t67pJO13rqE-50">
          <mxGeometry x="45" y="380" width="10" height="80" as="geometry" />
        </mxCell>
        <mxCell id="Hmux4KGo7t67pJO13rqE-123" value="" style="html=1;points=[];perimeter=orthogonalPerimeter;outlineConnect=0;targetShapes=umlLifeline;portConstraint=eastwest;newEdgeStyle={&quot;edgeStyle&quot;:&quot;elbowEdgeStyle&quot;,&quot;elbow&quot;:&quot;vertical&quot;,&quot;curved&quot;:0,&quot;rounded&quot;:0};" vertex="1" parent="Hmux4KGo7t67pJO13rqE-50">
          <mxGeometry x="50" y="410" width="10" height="40" as="geometry" />
        </mxCell>
        <mxCell id="Hmux4KGo7t67pJO13rqE-124" value="根据Pod 声明的csi中的Cache Name，&lt;br&gt;选择缓存分布的节点，绑定到Pod 上" style="html=1;align=left;spacingLeft=2;endArrow=block;rounded=0;edgeStyle=orthogonalEdgeStyle;curved=0;rounded=0;" edge="1" target="Hmux4KGo7t67pJO13rqE-123" parent="Hmux4KGo7t67pJO13rqE-50">
          <mxGeometry relative="1" as="geometry">
            <mxPoint x="55" y="390" as="sourcePoint" />
            <Array as="points">
              <mxPoint x="85" y="420" />
            </Array>
          </mxGeometry>
        </mxCell>
        <mxCell id="Hmux4KGo7t67pJO13rqE-52" value="" style="shape=umlLifeline;perimeter=lifelinePerimeter;whiteSpace=wrap;html=1;container=1;dropTarget=0;collapsible=0;recursiveResize=0;outlineConnect=0;portConstraint=eastwest;newEdgeStyle={&quot;edgeStyle&quot;:&quot;elbowEdgeStyle&quot;,&quot;elbow&quot;:&quot;vertical&quot;,&quot;curved&quot;:0,&quot;rounded&quot;:0};participant=umlActor;" vertex="1" parent="1">
          <mxGeometry x="30" y="1200" width="20" height="800" as="geometry" />
        </mxCell>
        <mxCell id="Hmux4KGo7t67pJO13rqE-53" value="kube&lt;br&gt;apiserver" style="shape=umlLifeline;perimeter=lifelinePerimeter;whiteSpace=wrap;html=1;container=1;dropTarget=0;collapsible=0;recursiveResize=0;outlineConnect=0;portConstraint=eastwest;newEdgeStyle={&quot;edgeStyle&quot;:&quot;elbowEdgeStyle&quot;,&quot;elbow&quot;:&quot;vertical&quot;,&quot;curved&quot;:0,&quot;rounded&quot;:0};" vertex="1" parent="1">
          <mxGeometry x="120" y="1200" width="100" height="800" as="geometry" />
        </mxCell>
        <mxCell id="Hmux4KGo7t67pJO13rqE-55" value="创建Cache CR" style="html=1;verticalAlign=bottom;endArrow=block;edgeStyle=elbowEdgeStyle;elbow=vertical;curved=0;rounded=0;" edge="1" parent="1" target="Hmux4KGo7t67pJO13rqE-53">
          <mxGeometry width="80" relative="1" as="geometry">
            <mxPoint x="40" y="1280" as="sourcePoint" />
            <mxPoint x="120" y="1280" as="targetPoint" />
          </mxGeometry>
        </mxCell>
        <mxCell id="Hmux4KGo7t67pJO13rqE-82" value="Cache 事件" style="html=1;verticalAlign=bottom;endArrow=block;edgeStyle=elbowEdgeStyle;elbow=vertical;curved=0;rounded=0;" edge="1" target="Hmux4KGo7t67pJO13rqE-81" parent="1">
          <mxGeometry x="0.0065" relative="1" as="geometry">
            <mxPoint x="170" y="1290" as="sourcePoint" />
            <mxPoint as="offset" />
          </mxGeometry>
        </mxCell>
        <mxCell id="Hmux4KGo7t67pJO13rqE-83" value="写入NodeCache CR" style="html=1;verticalAlign=bottom;endArrow=open;dashed=1;endSize=8;edgeStyle=elbowEdgeStyle;elbow=vertical;curved=0;rounded=0;" edge="1" source="Hmux4KGo7t67pJO13rqE-81" parent="1">
          <mxGeometry x="0.0065" relative="1" as="geometry">
            <mxPoint x="170" y="1365" as="targetPoint" />
            <mxPoint as="offset" />
          </mxGeometry>
        </mxCell>
        <mxCell id="Hmux4KGo7t67pJO13rqE-87" value="鉴定该节点的NodeCache 事件" style="html=1;verticalAlign=bottom;endArrow=block;edgeStyle=elbowEdgeStyle;elbow=vertical;curved=0;rounded=0;" edge="1" target="Hmux4KGo7t67pJO13rqE-86" parent="1">
          <mxGeometry relative="1" as="geometry">
            <mxPoint x="171" y="1400" as="sourcePoint" />
          </mxGeometry>
        </mxCell>
        <mxCell id="Hmux4KGo7t67pJO13rqE-90" value="" style="group" vertex="1" connectable="0" parent="1">
          <mxGeometry x="870" y="40" width="520" height="70" as="geometry" />
        </mxCell>
        <mxCell id="Hmux4KGo7t67pJO13rqE-91" value="" style="rounded=0;whiteSpace=wrap;html=1;" vertex="1" parent="Hmux4KGo7t67pJO13rqE-90">
          <mxGeometry width="520" height="70" as="geometry" />
        </mxCell>
        <mxCell id="Hmux4KGo7t67pJO13rqE-92" value="Cache" style="rounded=0;whiteSpace=wrap;html=1;" vertex="1" parent="Hmux4KGo7t67pJO13rqE-90">
          <mxGeometry x="161" y="30" width="198" height="30" as="geometry" />
        </mxCell>
        <mxCell id="Hmux4KGo7t67pJO13rqE-93" value="自定义资源" style="text;html=1;strokeColor=none;fillColor=none;align=center;verticalAlign=middle;whiteSpace=wrap;rounded=0;" vertex="1" parent="Hmux4KGo7t67pJO13rqE-90">
          <mxGeometry x="104.00000000000001" width="312.00000000000006" height="30" as="geometry" />
        </mxCell>
        <mxCell id="Hmux4KGo7t67pJO13rqE-94" value="kubernetes" style="rounded=0;whiteSpace=wrap;html=1;" vertex="1" parent="1">
          <mxGeometry x="870" y="320" width="520" height="40" as="geometry" />
        </mxCell>
        <mxCell id="Hmux4KGo7t67pJO13rqE-95" value="" style="group" vertex="1" connectable="0" parent="1">
          <mxGeometry x="870" y="400" width="520" height="220" as="geometry" />
        </mxCell>
        <mxCell id="Hmux4KGo7t67pJO13rqE-96" value="" style="rounded=0;whiteSpace=wrap;html=1;" vertex="1" parent="Hmux4KGo7t67pJO13rqE-95">
          <mxGeometry width="520" height="220" as="geometry" />
        </mxCell>
        <mxCell id="Hmux4KGo7t67pJO13rqE-97" value="Node" style="text;html=1;strokeColor=none;fillColor=none;align=center;verticalAlign=middle;whiteSpace=wrap;rounded=0;" vertex="1" parent="Hmux4KGo7t67pJO13rqE-95">
          <mxGeometry x="170" width="180" height="30" as="geometry" />
        </mxCell>
        <mxCell id="Hmux4KGo7t67pJO13rqE-98" value="" style="group" vertex="1" connectable="0" parent="Hmux4KGo7t67pJO13rqE-95">
          <mxGeometry x="40" y="40" width="440" height="60" as="geometry" />
        </mxCell>
        <mxCell id="Hmux4KGo7t67pJO13rqE-99" value="Cache&lt;br&gt;Agent" style="rounded=0;whiteSpace=wrap;html=1;" vertex="1" parent="Hmux4KGo7t67pJO13rqE-98">
          <mxGeometry width="120" height="60" as="geometry" />
        </mxCell>
        <mxCell id="Hmux4KGo7t67pJO13rqE-100" value="Cache&lt;br&gt;AwareAgent" style="rounded=0;whiteSpace=wrap;html=1;" vertex="1" parent="Hmux4KGo7t67pJO13rqE-98">
          <mxGeometry x="160" width="120" height="60" as="geometry" />
        </mxCell>
        <mxCell id="Hmux4KGo7t67pJO13rqE-101" value="Cache&lt;br&gt;CSI" style="rounded=0;whiteSpace=wrap;html=1;" vertex="1" parent="Hmux4KGo7t67pJO13rqE-98">
          <mxGeometry x="320" width="120" height="60" as="geometry" />
        </mxCell>
        <mxCell id="Hmux4KGo7t67pJO13rqE-102" value="" style="group" vertex="1" connectable="0" parent="Hmux4KGo7t67pJO13rqE-95">
          <mxGeometry x="40" y="140" width="440" height="70" as="geometry" />
        </mxCell>
        <mxCell id="Hmux4KGo7t67pJO13rqE-103" value="" style="rounded=0;whiteSpace=wrap;html=1;" vertex="1" parent="Hmux4KGo7t67pJO13rqE-102">
          <mxGeometry width="440" height="70" as="geometry" />
        </mxCell>
        <mxCell id="Hmux4KGo7t67pJO13rqE-104" value="hostpath" style="text;html=1;strokeColor=none;fillColor=none;align=center;verticalAlign=middle;whiteSpace=wrap;rounded=0;" vertex="1" parent="Hmux4KGo7t67pJO13rqE-102">
          <mxGeometry x="194.4186046511628" width="61.395348837209305" height="30" as="geometry" />
        </mxCell>
        <mxCell id="Hmux4KGo7t67pJO13rqE-105" value="SSD" style="rounded=0;whiteSpace=wrap;html=1;" vertex="1" parent="Hmux4KGo7t67pJO13rqE-102">
          <mxGeometry x="184.18604651162792" y="30" width="81.86046511627907" height="30" as="geometry" />
        </mxCell>
        <mxCell id="Hmux4KGo7t67pJO13rqE-106" value="Mem" style="rounded=0;whiteSpace=wrap;html=1;" vertex="1" parent="Hmux4KGo7t67pJO13rqE-102">
          <mxGeometry x="61.395348837209305" y="30" width="81.86046511627907" height="30" as="geometry" />
        </mxCell>
        <mxCell id="Hmux4KGo7t67pJO13rqE-107" value="HDD" style="rounded=0;whiteSpace=wrap;html=1;" vertex="1" parent="Hmux4KGo7t67pJO13rqE-102">
          <mxGeometry x="306.9767441860465" y="30" width="81.86046511627907" height="30" as="geometry" />
        </mxCell>
        <mxCell id="Hmux4KGo7t67pJO13rqE-108" value="" style="group" vertex="1" connectable="0" parent="1">
          <mxGeometry x="870" y="160" width="240" height="110" as="geometry" />
        </mxCell>
        <mxCell id="Hmux4KGo7t67pJO13rqE-109" value="" style="rounded=0;whiteSpace=wrap;html=1;" vertex="1" parent="Hmux4KGo7t67pJO13rqE-108">
          <mxGeometry width="240" height="110" as="geometry" />
        </mxCell>
        <mxCell id="Hmux4KGo7t67pJO13rqE-110" value="控制器" style="text;html=1;strokeColor=none;fillColor=none;align=center;verticalAlign=middle;whiteSpace=wrap;rounded=0;movable=1;resizable=1;rotatable=1;deletable=1;editable=1;locked=0;connectable=1;" vertex="1" parent="Hmux4KGo7t67pJO13rqE-108">
          <mxGeometry x="36" width="180" height="30" as="geometry" />
        </mxCell>
        <mxCell id="Hmux4KGo7t67pJO13rqE-111" value="缓存&lt;br&gt;控制器" style="rounded=0;whiteSpace=wrap;html=1;" vertex="1" parent="Hmux4KGo7t67pJO13rqE-108">
          <mxGeometry x="48" y="40" width="144" height="60" as="geometry" />
        </mxCell>
        <mxCell id="Hmux4KGo7t67pJO13rqE-112" value="" style="rounded=0;whiteSpace=wrap;html=1;" vertex="1" parent="1">
          <mxGeometry x="1150" y="160" width="240" height="110" as="geometry" />
        </mxCell>
        <mxCell id="Hmux4KGo7t67pJO13rqE-113" value="调度器" style="text;html=1;strokeColor=none;fillColor=none;align=center;verticalAlign=middle;whiteSpace=wrap;rounded=0;movable=1;resizable=1;rotatable=1;deletable=1;editable=1;locked=0;connectable=1;" vertex="1" parent="1">
          <mxGeometry x="1202.1414285714286" y="160" width="142.85714285714286" height="30" as="geometry" />
        </mxCell>
        <mxCell id="Hmux4KGo7t67pJO13rqE-114" value="缓存协同&lt;br&gt;调度器" style="rounded=0;whiteSpace=wrap;html=1;" vertex="1" parent="1">
          <mxGeometry x="1200" y="200" width="147.14" height="60" as="geometry" />
        </mxCell>
        <mxCell id="Hmux4KGo7t67pJO13rqE-1" value="" style="rounded=0;whiteSpace=wrap;html=1;" vertex="1" parent="1">
          <mxGeometry x="80" y="40" width="520" height="70" as="geometry" />
        </mxCell>
        <mxCell id="Hmux4KGo7t67pJO13rqE-3" value="Cache" style="rounded=0;whiteSpace=wrap;html=1;" vertex="1" parent="1">
          <mxGeometry x="100" y="70" width="198" height="30" as="geometry" />
        </mxCell>
        <mxCell id="Hmux4KGo7t67pJO13rqE-5" value="CRD" style="text;html=1;strokeColor=none;fillColor=none;align=center;verticalAlign=middle;whiteSpace=wrap;rounded=0;" vertex="1" parent="1">
          <mxGeometry x="184" y="40" width="312.00000000000006" height="30" as="geometry" />
        </mxCell>
        <mxCell id="Hmux4KGo7t67pJO13rqE-115" value="NodeCache" style="rounded=0;whiteSpace=wrap;html=1;" vertex="1" parent="1">
          <mxGeometry x="360" y="70" width="198" height="30" as="geometry" />
        </mxCell>
        <mxCell id="Hmux4KGo7t67pJO13rqE-12" value="" style="rounded=0;whiteSpace=wrap;html=1;" vertex="1" parent="1">
          <mxGeometry x="80" y="400" width="520" height="220" as="geometry" />
        </mxCell>
        <mxCell id="Hmux4KGo7t67pJO13rqE-14" value="Node" style="text;html=1;strokeColor=none;fillColor=none;align=center;verticalAlign=middle;whiteSpace=wrap;rounded=0;" vertex="1" parent="1">
          <mxGeometry x="300" y="400" width="180" height="30" as="geometry" />
        </mxCell>
        <mxCell id="Hmux4KGo7t67pJO13rqE-32" value="" style="group" vertex="1" connectable="0" parent="1">
          <mxGeometry x="120" y="540" width="440" height="70" as="geometry" />
        </mxCell>
        <mxCell id="Hmux4KGo7t67pJO13rqE-25" value="" style="rounded=0;whiteSpace=wrap;html=1;" vertex="1" parent="Hmux4KGo7t67pJO13rqE-32">
          <mxGeometry width="440" height="70" as="geometry" />
        </mxCell>
        <mxCell id="Hmux4KGo7t67pJO13rqE-26" value="hostpath" style="text;html=1;strokeColor=none;fillColor=none;align=center;verticalAlign=middle;whiteSpace=wrap;rounded=0;" vertex="1" parent="Hmux4KGo7t67pJO13rqE-32">
          <mxGeometry x="194.4186046511628" width="61.395348837209305" height="30" as="geometry" />
        </mxCell>
        <mxCell id="Hmux4KGo7t67pJO13rqE-28" value="SSD" style="rounded=0;whiteSpace=wrap;html=1;" vertex="1" parent="Hmux4KGo7t67pJO13rqE-32">
          <mxGeometry x="184.18604651162792" y="30" width="81.86046511627907" height="30" as="geometry" />
        </mxCell>
        <mxCell id="Hmux4KGo7t67pJO13rqE-30" value="Mem" style="rounded=0;whiteSpace=wrap;html=1;" vertex="1" parent="Hmux4KGo7t67pJO13rqE-32">
          <mxGeometry x="61.395348837209305" y="30" width="81.86046511627907" height="30" as="geometry" />
        </mxCell>
        <mxCell id="Hmux4KGo7t67pJO13rqE-31" value="HDD" style="rounded=0;whiteSpace=wrap;html=1;" vertex="1" parent="Hmux4KGo7t67pJO13rqE-32">
          <mxGeometry x="306.9767441860465" y="30" width="81.86046511627907" height="30" as="geometry" />
        </mxCell>
        <mxCell id="Hmux4KGo7t67pJO13rqE-15" value="Cache&lt;br&gt;Agent" style="rounded=0;whiteSpace=wrap;html=1;" vertex="1" parent="1">
          <mxGeometry x="120" y="440" width="200" height="60" as="geometry" />
        </mxCell>
        <mxCell id="Hmux4KGo7t67pJO13rqE-17" value="Cache&lt;br&gt;CSI" style="rounded=0;whiteSpace=wrap;html=1;" vertex="1" parent="1">
          <mxGeometry x="360" y="440" width="200" height="60" as="geometry" />
        </mxCell>
        <mxCell id="Hmux4KGo7t67pJO13rqE-118" value="创建Job/Pod" style="html=1;verticalAlign=bottom;endArrow=block;edgeStyle=elbowEdgeStyle;elbow=vertical;curved=0;rounded=0;" edge="1" parent="1" target="Hmux4KGo7t67pJO13rqE-53">
          <mxGeometry width="80" relative="1" as="geometry">
            <mxPoint x="40" y="1560" as="sourcePoint" />
            <mxPoint x="120" y="1560" as="targetPoint" />
          </mxGeometry>
        </mxCell>
        <mxCell id="Hmux4KGo7t67pJO13rqE-121" value="监听Pod 事件" style="html=1;verticalAlign=bottom;endArrow=block;edgeStyle=elbowEdgeStyle;elbow=vertical;curved=0;rounded=0;" edge="1" target="Hmux4KGo7t67pJO13rqE-120" parent="1">
          <mxGeometry relative="1" as="geometry">
            <mxPoint x="170" y="1580" as="sourcePoint" />
          </mxGeometry>
        </mxCell>
        <mxCell id="Hmux4KGo7t67pJO13rqE-122" value="更新Pod NodeName" style="html=1;verticalAlign=bottom;endArrow=open;dashed=1;endSize=8;edgeStyle=elbowEdgeStyle;elbow=vertical;curved=0;rounded=0;" edge="1" source="Hmux4KGo7t67pJO13rqE-120" parent="1">
          <mxGeometry relative="1" as="geometry">
            <mxPoint x="170" y="1655" as="targetPoint" />
          </mxGeometry>
        </mxCell>
        <mxCell id="Hmux4KGo7t67pJO13rqE-137" value="kubelet" style="shape=umlLifeline;perimeter=lifelinePerimeter;whiteSpace=wrap;html=1;container=1;dropTarget=0;collapsible=0;recursiveResize=0;outlineConnect=0;portConstraint=eastwest;newEdgeStyle={&quot;edgeStyle&quot;:&quot;elbowEdgeStyle&quot;,&quot;elbow&quot;:&quot;vertical&quot;,&quot;curved&quot;:0,&quot;rounded&quot;:0};" vertex="1" parent="1">
          <mxGeometry x="760" y="1200" width="100" height="800" as="geometry" />
        </mxCell>
        <mxCell id="Hmux4KGo7t67pJO13rqE-139" value="" style="html=1;points=[];perimeter=orthogonalPerimeter;outlineConnect=0;targetShapes=umlLifeline;portConstraint=eastwest;newEdgeStyle={&quot;edgeStyle&quot;:&quot;elbowEdgeStyle&quot;,&quot;elbow&quot;:&quot;vertical&quot;,&quot;curved&quot;:0,&quot;rounded&quot;:0};" vertex="1" parent="Hmux4KGo7t67pJO13rqE-137">
          <mxGeometry x="45" y="520" width="10" height="130" as="geometry" />
        </mxCell>
        <mxCell id="Hmux4KGo7t67pJO13rqE-138" value="Cache&lt;br&gt;CSI Driver" style="shape=umlLifeline;perimeter=lifelinePerimeter;whiteSpace=wrap;html=1;container=1;dropTarget=0;collapsible=0;recursiveResize=0;outlineConnect=0;portConstraint=eastwest;newEdgeStyle={&quot;edgeStyle&quot;:&quot;elbowEdgeStyle&quot;,&quot;elbow&quot;:&quot;vertical&quot;,&quot;curved&quot;:0,&quot;rounded&quot;:0};" vertex="1" parent="1">
          <mxGeometry x="920" y="1200" width="100" height="800" as="geometry" />
        </mxCell>
        <mxCell id="Hmux4KGo7t67pJO13rqE-144" value="" style="html=1;points=[];perimeter=orthogonalPerimeter;outlineConnect=0;targetShapes=umlLifeline;portConstraint=eastwest;newEdgeStyle={&quot;edgeStyle&quot;:&quot;elbowEdgeStyle&quot;,&quot;elbow&quot;:&quot;vertical&quot;,&quot;curved&quot;:0,&quot;rounded&quot;:0};" vertex="1" parent="Hmux4KGo7t67pJO13rqE-138">
          <mxGeometry x="46" y="574" width="10" height="40" as="geometry" />
        </mxCell>
        <mxCell id="Hmux4KGo7t67pJO13rqE-145" value="根据Cache Name 为容器&lt;br&gt;挂载主机路径" style="html=1;align=left;spacingLeft=2;endArrow=block;rounded=0;edgeStyle=orthogonalEdgeStyle;curved=0;rounded=0;" edge="1" target="Hmux4KGo7t67pJO13rqE-144" parent="Hmux4KGo7t67pJO13rqE-138">
          <mxGeometry relative="1" as="geometry">
            <mxPoint x="51" y="554" as="sourcePoint" />
            <Array as="points">
              <mxPoint x="81" y="584" />
            </Array>
          </mxGeometry>
        </mxCell>
        <mxCell id="Hmux4KGo7t67pJO13rqE-140" value="监听该节点Pod" style="html=1;verticalAlign=bottom;endArrow=block;edgeStyle=elbowEdgeStyle;elbow=vertical;curved=0;rounded=0;" edge="1" target="Hmux4KGo7t67pJO13rqE-139" parent="1">
          <mxGeometry relative="1" as="geometry">
            <mxPoint x="170" y="1720" as="sourcePoint" />
          </mxGeometry>
        </mxCell>
        <mxCell id="Hmux4KGo7t67pJO13rqE-146" value="dispatch" style="html=1;verticalAlign=bottom;endArrow=block;edgeStyle=elbowEdgeStyle;elbow=vertical;curved=0;rounded=0;" edge="1" parent="1" target="Hmux4KGo7t67pJO13rqE-138">
          <mxGeometry width="80" relative="1" as="geometry">
            <mxPoint x="810" y="1740" as="sourcePoint" />
            <mxPoint x="890" y="1740" as="targetPoint" />
          </mxGeometry>
        </mxCell>
        <mxCell id="Hmux4KGo7t67pJO13rqE-167" value="" style="edgeStyle=orthogonalEdgeStyle;rounded=0;orthogonalLoop=1;jettySize=auto;html=1;endArrow=open;endFill=0;" edge="1" parent="1" source="Hmux4KGo7t67pJO13rqE-149" target="Hmux4KGo7t67pJO13rqE-154">
          <mxGeometry relative="1" as="geometry" />
        </mxCell>
        <mxCell id="Hmux4KGo7t67pJO13rqE-149" value="在所述容器平台k8s 中创建一个CRD资源类型Cache， 并部署Controller、Scheduler Plugin、Agent、CSI 驱动" style="rounded=0;whiteSpace=wrap;html=1;" vertex="1" parent="1">
          <mxGeometry x="1360" y="1200" width="320" height="60" as="geometry" />
        </mxCell>
        <mxCell id="Hmux4KGo7t67pJO13rqE-168" value="" style="edgeStyle=orthogonalEdgeStyle;rounded=0;orthogonalLoop=1;jettySize=auto;html=1;endArrow=open;endFill=0;" edge="1" parent="1" source="Hmux4KGo7t67pJO13rqE-154" target="Hmux4KGo7t67pJO13rqE-156">
          <mxGeometry relative="1" as="geometry" />
        </mxCell>
        <mxCell id="Hmux4KGo7t67pJO13rqE-154" value="在所述容器平台k8s 中创建Cache 资源，编写其中自定义字段信息， 包括远端数据集的存储地址访问信息、&lt;br&gt;副本数等属性" style="rounded=0;whiteSpace=wrap;html=1;" vertex="1" parent="1">
          <mxGeometry x="1360" y="1300" width="320" height="60" as="geometry" />
        </mxCell>
        <mxCell id="Hmux4KGo7t67pJO13rqE-169" value="" style="edgeStyle=orthogonalEdgeStyle;rounded=0;orthogonalLoop=1;jettySize=auto;html=1;endArrow=open;endFill=0;" edge="1" parent="1" source="Hmux4KGo7t67pJO13rqE-156" target="Hmux4KGo7t67pJO13rqE-157">
          <mxGeometry relative="1" as="geometry" />
        </mxCell>
        <mxCell id="Hmux4KGo7t67pJO13rqE-156" value="基于所述容器平台k8s 中的watch机制， 所述Controller 监听到Cache 资源发生变化时，根据自定义资源对象中的期望状态与实际状态进行调谐， 完成相应的处理逻辑， 为Cache 选择节点并生成NodeCache 自定义资源" style="rounded=0;whiteSpace=wrap;html=1;" vertex="1" parent="1">
          <mxGeometry x="1360" y="1400" width="320" height="60" as="geometry" />
        </mxCell>
        <mxCell id="Hmux4KGo7t67pJO13rqE-170" value="" style="edgeStyle=orthogonalEdgeStyle;rounded=0;orthogonalLoop=1;jettySize=auto;html=1;endArrow=open;endFill=0;" edge="1" parent="1" source="Hmux4KGo7t67pJO13rqE-157" target="Hmux4KGo7t67pJO13rqE-158">
          <mxGeometry relative="1" as="geometry" />
        </mxCell>
        <mxCell id="Hmux4KGo7t67pJO13rqE-157" value="在NodeCache相应节点上的所述Agent监听到Cache 需要加载， 将Cache 的访问信息写入所述Engine 需要加载的缓存列表配置中" style="rounded=0;whiteSpace=wrap;html=1;" vertex="1" parent="1">
          <mxGeometry x="1360" y="1500" width="320" height="60" as="geometry" />
        </mxCell>
        <mxCell id="Hmux4KGo7t67pJO13rqE-171" value="" style="edgeStyle=orthogonalEdgeStyle;rounded=0;orthogonalLoop=1;jettySize=auto;html=1;endArrow=open;endFill=0;" edge="1" parent="1" source="Hmux4KGo7t67pJO13rqE-158" target="Hmux4KGo7t67pJO13rqE-159">
          <mxGeometry relative="1" as="geometry" />
        </mxCell>
        <mxCell id="Hmux4KGo7t67pJO13rqE-158" value="所述Engine 会根据配置创建一个主机路径，并使用相应的存储介质类型，挂载底层的远程存储， 实现对远端数据集的缓存" style="rounded=0;whiteSpace=wrap;html=1;" vertex="1" parent="1">
          <mxGeometry x="1360" y="1600" width="320" height="60" as="geometry" />
        </mxCell>
        <mxCell id="Hmux4KGo7t67pJO13rqE-172" value="" style="edgeStyle=orthogonalEdgeStyle;rounded=0;orthogonalLoop=1;jettySize=auto;html=1;endArrow=open;endFill=0;" edge="1" parent="1" source="Hmux4KGo7t67pJO13rqE-159" target="Hmux4KGo7t67pJO13rqE-160">
          <mxGeometry relative="1" as="geometry" />
        </mxCell>
        <mxCell id="Hmux4KGo7t67pJO13rqE-159" value="在所述容器平台k8s 中创建一个使用cache csi 的 Pod 或创建Job等其他类型由k8s控制器产生Pod，k8s 调度器开启调度流程， 所述co-cache 插件会根据csi中声明的cacheName 选择缓存分布的节点，并最终绑定为Pod 绑定该节点" style="rounded=0;whiteSpace=wrap;html=1;" vertex="1" parent="1">
          <mxGeometry x="1360" y="1700" width="320" height="60" as="geometry" />
        </mxCell>
        <mxCell id="Hmux4KGo7t67pJO13rqE-160" value="在所述容器平台k8s 中, kubelet 监听到上述绑定到本节点的Pod, 调用Pod 声明的CSI 驱动，  根据Cache Name 为容器挂载上述Cache的主机路径" style="rounded=0;whiteSpace=wrap;html=1;" vertex="1" parent="1">
          <mxGeometry x="1360" y="1800" width="320" height="60" as="geometry" />
        </mxCell>
        <mxCell id="Hmux4KGo7t67pJO13rqE-183" value="" style="group" vertex="1" connectable="0" parent="1">
          <mxGeometry x="1680" y="1190" width="100" height="30" as="geometry" />
        </mxCell>
        <mxCell id="Hmux4KGo7t67pJO13rqE-181" value="" style="endArrow=none;html=1;rounded=0;elbow=vertical;edgeStyle=orthogonalEdgeStyle;curved=1;" edge="1" parent="Hmux4KGo7t67pJO13rqE-183">
          <mxGeometry width="50" height="50" relative="1" as="geometry">
            <mxPoint y="40" as="sourcePoint" />
            <mxPoint x="50" y="20" as="targetPoint" />
            <Array as="points">
              <mxPoint y="30" />
              <mxPoint x="50" y="30" />
            </Array>
          </mxGeometry>
        </mxCell>
        <mxCell id="Hmux4KGo7t67pJO13rqE-182" value="S201" style="text;html=1;strokeColor=none;fillColor=none;align=center;verticalAlign=middle;whiteSpace=wrap;rounded=0;" vertex="1" parent="Hmux4KGo7t67pJO13rqE-183">
          <mxGeometry x="40" width="60" height="30" as="geometry" />
        </mxCell>
        <mxCell id="Hmux4KGo7t67pJO13rqE-185" value="" style="group" vertex="1" connectable="0" parent="1">
          <mxGeometry x="1680" y="1290" width="100" height="30" as="geometry" />
        </mxCell>
        <mxCell id="Hmux4KGo7t67pJO13rqE-186" value="" style="endArrow=none;html=1;rounded=0;elbow=vertical;edgeStyle=orthogonalEdgeStyle;curved=1;" edge="1" parent="Hmux4KGo7t67pJO13rqE-185">
          <mxGeometry width="50" height="50" relative="1" as="geometry">
            <mxPoint y="40" as="sourcePoint" />
            <mxPoint x="50" y="20" as="targetPoint" />
            <Array as="points">
              <mxPoint y="30" />
              <mxPoint x="50" y="30" />
            </Array>
          </mxGeometry>
        </mxCell>
        <mxCell id="Hmux4KGo7t67pJO13rqE-187" value="S202" style="text;html=1;strokeColor=none;fillColor=none;align=center;verticalAlign=middle;whiteSpace=wrap;rounded=0;" vertex="1" parent="Hmux4KGo7t67pJO13rqE-185">
          <mxGeometry x="40" width="60" height="30" as="geometry" />
        </mxCell>
        <mxCell id="Hmux4KGo7t67pJO13rqE-188" value="" style="group" vertex="1" connectable="0" parent="1">
          <mxGeometry x="1680" y="1390" width="100" height="30" as="geometry" />
        </mxCell>
        <mxCell id="Hmux4KGo7t67pJO13rqE-189" value="" style="endArrow=none;html=1;rounded=0;elbow=vertical;edgeStyle=orthogonalEdgeStyle;curved=1;" edge="1" parent="Hmux4KGo7t67pJO13rqE-188">
          <mxGeometry width="50" height="50" relative="1" as="geometry">
            <mxPoint y="40" as="sourcePoint" />
            <mxPoint x="50" y="20" as="targetPoint" />
            <Array as="points">
              <mxPoint y="30" />
              <mxPoint x="50" y="30" />
            </Array>
          </mxGeometry>
        </mxCell>
        <mxCell id="Hmux4KGo7t67pJO13rqE-190" value="S203" style="text;html=1;strokeColor=none;fillColor=none;align=center;verticalAlign=middle;whiteSpace=wrap;rounded=0;" vertex="1" parent="Hmux4KGo7t67pJO13rqE-188">
          <mxGeometry x="40" width="60" height="30" as="geometry" />
        </mxCell>
        <mxCell id="Hmux4KGo7t67pJO13rqE-191" value="" style="group" vertex="1" connectable="0" parent="1">
          <mxGeometry x="1680" y="1490" width="100" height="30" as="geometry" />
        </mxCell>
        <mxCell id="Hmux4KGo7t67pJO13rqE-192" value="" style="endArrow=none;html=1;rounded=0;elbow=vertical;edgeStyle=orthogonalEdgeStyle;curved=1;" edge="1" parent="Hmux4KGo7t67pJO13rqE-191">
          <mxGeometry width="50" height="50" relative="1" as="geometry">
            <mxPoint y="40" as="sourcePoint" />
            <mxPoint x="50" y="20" as="targetPoint" />
            <Array as="points">
              <mxPoint y="30" />
              <mxPoint x="50" y="30" />
            </Array>
          </mxGeometry>
        </mxCell>
        <mxCell id="Hmux4KGo7t67pJO13rqE-193" value="S204" style="text;html=1;strokeColor=none;fillColor=none;align=center;verticalAlign=middle;whiteSpace=wrap;rounded=0;" vertex="1" parent="Hmux4KGo7t67pJO13rqE-191">
          <mxGeometry x="40" width="60" height="30" as="geometry" />
        </mxCell>
        <mxCell id="Hmux4KGo7t67pJO13rqE-194" value="" style="group" vertex="1" connectable="0" parent="1">
          <mxGeometry x="1680" y="1585" width="100" height="30" as="geometry" />
        </mxCell>
        <mxCell id="Hmux4KGo7t67pJO13rqE-195" value="" style="endArrow=none;html=1;rounded=0;elbow=vertical;edgeStyle=orthogonalEdgeStyle;curved=1;" edge="1" parent="Hmux4KGo7t67pJO13rqE-194">
          <mxGeometry width="50" height="50" relative="1" as="geometry">
            <mxPoint y="40" as="sourcePoint" />
            <mxPoint x="50" y="20" as="targetPoint" />
            <Array as="points">
              <mxPoint y="30" />
              <mxPoint x="50" y="30" />
            </Array>
          </mxGeometry>
        </mxCell>
        <mxCell id="Hmux4KGo7t67pJO13rqE-196" value="S205" style="text;html=1;strokeColor=none;fillColor=none;align=center;verticalAlign=middle;whiteSpace=wrap;rounded=0;" vertex="1" parent="Hmux4KGo7t67pJO13rqE-194">
          <mxGeometry x="40" width="60" height="30" as="geometry" />
        </mxCell>
        <mxCell id="Hmux4KGo7t67pJO13rqE-197" value="" style="group" vertex="1" connectable="0" parent="1">
          <mxGeometry x="1680" y="1690" width="100" height="30" as="geometry" />
        </mxCell>
        <mxCell id="Hmux4KGo7t67pJO13rqE-198" value="" style="endArrow=none;html=1;rounded=0;elbow=vertical;edgeStyle=orthogonalEdgeStyle;curved=1;" edge="1" parent="Hmux4KGo7t67pJO13rqE-197">
          <mxGeometry width="50" height="50" relative="1" as="geometry">
            <mxPoint y="40" as="sourcePoint" />
            <mxPoint x="50" y="20" as="targetPoint" />
            <Array as="points">
              <mxPoint y="30" />
              <mxPoint x="50" y="30" />
            </Array>
          </mxGeometry>
        </mxCell>
        <mxCell id="Hmux4KGo7t67pJO13rqE-199" value="S206" style="text;html=1;strokeColor=none;fillColor=none;align=center;verticalAlign=middle;whiteSpace=wrap;rounded=0;" vertex="1" parent="Hmux4KGo7t67pJO13rqE-197">
          <mxGeometry x="40" width="60" height="30" as="geometry" />
        </mxCell>
        <mxCell id="Hmux4KGo7t67pJO13rqE-200" value="" style="group" vertex="1" connectable="0" parent="1">
          <mxGeometry x="1680" y="1790" width="100" height="30" as="geometry" />
        </mxCell>
        <mxCell id="Hmux4KGo7t67pJO13rqE-201" value="" style="endArrow=none;html=1;rounded=0;elbow=vertical;edgeStyle=orthogonalEdgeStyle;curved=1;" edge="1" parent="Hmux4KGo7t67pJO13rqE-200">
          <mxGeometry width="50" height="50" relative="1" as="geometry">
            <mxPoint y="40" as="sourcePoint" />
            <mxPoint x="50" y="20" as="targetPoint" />
            <Array as="points">
              <mxPoint y="30" />
              <mxPoint x="50" y="30" />
            </Array>
          </mxGeometry>
        </mxCell>
        <mxCell id="Hmux4KGo7t67pJO13rqE-202" value="S207" style="text;html=1;strokeColor=none;fillColor=none;align=center;verticalAlign=middle;whiteSpace=wrap;rounded=0;" vertex="1" parent="Hmux4KGo7t67pJO13rqE-200">
          <mxGeometry x="40" width="60" height="30" as="geometry" />
        </mxCell>
      </root>
    </mxGraphModel>
  </diagram>
</mxfile>
